# xmcd
#
# Track frame offsets:
#	182
#	14997
#	29420
#	43150
#	58757
#	71295
#	84035
#	95490
#	109630
#	122562
#	133797
#	146857
#	159277
#	182410
#	199660
#	214187
#	235272
#	247495
#	268332
#	281057
#	295215
#	309052
#	326240
#
# Disc length: 4511 seconds
#
# Revision: 5
# Processed by: cddbd v1.5.2PL0 Copyright (c) Steve Scherf et al.
# Submitted via: audiograbber 1.83.01
#
DISCID=60119d17
DTITLE=Various Artist - Indigo Blues Collection 1
DYEAR=1995
DGENRE=Blues
TTITLE0=Paul Jones - Work Song
TTITLE1=Leadbelly - Easy Rider
TTITLE2=Tampa Red - Seminole Blues
TTITLE3=Bessie Smith - Do Your Duty
TTITLE4=Lonnie Johnson - Mr. Johnson's Swing
TTITLE5=Big Bill Broonzy - Long Tall Mama
TTITLE6=Sonny Boy Williamson - Got The Bottle Up And Gone
TTITLE7=Blind Willie McTell - Broke Down Engine
TTITLE8=Leroy Carr - How Long Has That Evening Train Been Gone
TTITLE9=Robert Johnson - Stones In My Passway
TTITLE10=Robert Lockwood - Take A Little Walk With Me
TTITLE11=Memphis Minnie - Nothing In Ramblin'
TTITLE12=Paul Lamb and The King Snakes - Everyday I Have The Blues
TTITLE13=Jerry Portnoy - Home Run Hitter
TTITLE14=Stan Webb's Chicken Shack - Webb's Blues
TTITLE15=Mick Abraham's Blodwyn Pig - I Wonder Who
TTITLE16=Lowell Fulson - Something's Wrong
TTITLE17=Jimmy Witherspoon - You Ain't Foolin' Me
TTITLE18=Duster Bennett - Losing Love
TTITLE19=Alexis Korner - River's Invitation
TTITLE20=Nine Below Zero - One Way Street
TTITLE21=Buddy Guy And Junior Wells - Country Girl
TTITLE22=Ike Turner - Prancin'
EXTD=
EXTT0=
EXTT1=
EXTT2=
EXTT3=
EXTT4=
EXTT5=
EXTT6=
EXTT7=
EXTT8=
EXTT9=
EXTT10=
EXTT11=
EXTT12=
EXTT13=
EXTT14=
EXTT15=
EXTT16=
EXTT17=
EXTT18=
EXTT19=
EXTT20=
EXTT21=
EXTT22=
PLAYORDER=
